<mxfile host="app.diagrams.net" modified="2023-10-12T13:08:49.202Z" agent="Mozilla/5.0 (X11; Linux x86_64) AppleWebKit/537.36 (KHTML, like Gecko) Chrome/118.0.0.0 Safari/537.36" version="21.8.0" etag="O8ngOKpiytYKYr-yx4zA" type="github">
  <diagram name="Page-1" id="Ken90fRENR_DKgnEPoyX">
    <mxGraphModel>
      <root>
        <mxCell id="0" />
        <mxCell id="1" parent="0" />
      </root>
    </mxGraphModel>
  </diagram>
</mxfile>
